# Blender 3.6.5
# www.blender.org
mtllib Piso.mtl
o Piso
v -73.083008 0.000007 40.903839
v -63.083008 0.000007 40.903839
v -53.083008 0.000007 40.903839
v -43.083008 0.000007 40.903839
v -33.083008 0.000007 40.903839
v -23.083008 0.000007 40.903839
v -13.083006 0.000007 40.903839
v -3.083010 0.000007 40.903839
v 6.916994 0.000007 40.903839
v 16.916996 0.000007 40.903839
v 26.916992 0.000007 40.903839
v -73.083008 0.000005 30.903839
v -63.083008 0.000005 30.903839
v -53.083008 0.000005 30.903839
v -43.083008 0.000005 30.903839
v -33.083008 0.000005 30.903839
v -23.083008 0.000005 30.903839
v -13.083006 0.000005 30.903839
v -3.083010 0.000005 30.903839
v 6.916994 0.000005 30.903839
v 16.916996 0.000005 30.903839
v 26.916992 0.000005 30.903839
v -73.083008 0.000004 20.903839
v -63.083008 0.000004 20.903839
v -53.083008 0.000004 20.903839
v -43.083008 0.000004 20.903839
v -33.083008 0.000004 20.903839
v -23.083008 0.000004 20.903839
v -13.083006 0.000004 20.903839
v -3.083010 0.000004 20.903839
v 6.916994 0.000004 20.903839
v 16.916996 0.000004 20.903839
v 26.916992 0.000004 20.903839
v -73.083008 0.000003 10.903836
v -63.083008 0.000003 10.903836
v -53.083008 0.000003 10.903836
v -43.083008 0.000003 10.903836
v -33.083008 0.000003 10.903836
v -23.083008 0.000003 10.903836
v -13.083006 0.000003 10.903836
v -3.083010 0.000003 10.903836
v 6.916994 0.000003 10.903836
v 16.916996 0.000003 10.903836
v 26.916992 0.000003 10.903836
v -73.083008 0.000001 0.903837
v -63.083008 0.000001 0.903837
v -53.083008 0.000001 0.903837
v -43.083008 0.000001 0.903837
v -33.083008 0.000001 0.903837
v -23.083008 0.000001 0.903837
v -13.083006 0.000001 0.903837
v -3.083010 0.000001 0.903837
v 6.916994 0.000001 0.903837
v 16.916996 0.000001 0.903837
v 26.916992 0.000001 0.903837
v -73.083008 -0.000001 -9.096162
v -63.083008 -0.000001 -9.096162
v -53.083008 -0.000001 -9.096162
v -43.083008 -0.000001 -9.096162
v -33.083008 -0.000001 -9.096162
v -23.083008 -0.000001 -9.096162
v -13.083006 -0.000001 -9.096162
v -3.083010 -0.000001 -9.096162
v 6.916994 -0.000001 -9.096162
v 16.916996 -0.000001 -9.096162
v 26.916992 -0.000001 -9.096162
v -73.083008 -0.000002 -19.096165
v -63.083008 -0.000002 -19.096165
v -53.083008 -0.000002 -19.096165
v -43.083008 -0.000002 -19.096165
v -33.083008 -0.000002 -19.096165
v -23.083008 -0.000002 -19.096165
v -13.083006 -0.000002 -19.096165
v -3.083010 -0.000002 -19.096165
v 6.916994 -0.000002 -19.096165
v 16.916996 -0.000002 -19.096165
v 26.916992 -0.000002 -19.096165
v -73.083008 -0.000004 -29.096161
v -63.083008 -0.000004 -29.096161
v -53.083008 -0.000004 -29.096161
v -43.083008 -0.000004 -29.096161
v -33.083008 -0.000004 -29.096161
v -23.083008 -0.000004 -29.096161
v -13.083006 -0.000004 -29.096161
v -3.083010 -0.000004 -29.096161
v 6.916994 -0.000004 -29.096161
v 16.916996 -0.000004 -29.096161
v 26.916992 -0.000004 -29.096161
v -73.083008 -0.000005 -39.096165
v -63.083008 -0.000005 -39.096165
v -53.083008 -0.000005 -39.096165
v -43.083008 -0.000005 -39.096165
v -33.083008 -0.000005 -39.096165
v -23.083008 -0.000005 -39.096165
v -13.083006 -0.000005 -39.096165
v -3.083010 -0.000005 -39.096165
v 6.916994 -0.000005 -39.096165
v 16.916996 -0.000005 -39.096165
v 26.916992 -0.000005 -39.096165
v -73.083008 -0.000007 -49.096165
v -63.083008 -0.000007 -49.096165
v -53.083008 -0.000007 -49.096165
v -43.083008 -0.000007 -49.096165
v -33.083008 -0.000007 -49.096165
v -23.083008 -0.000007 -49.096165
v -13.083006 -0.000007 -49.096165
v -3.083010 -0.000007 -49.096165
v 6.916994 -0.000007 -49.096165
v 16.916996 -0.000007 -49.096165
v 26.916992 -0.000007 -49.096165
v -73.083008 -0.000008 -59.096161
v -63.083008 -0.000008 -59.096161
v -53.083008 -0.000008 -59.096161
v -43.083008 -0.000008 -59.096161
v -33.083008 -0.000008 -59.096161
v -23.083008 -0.000008 -59.096161
v -13.083006 -0.000008 -59.096161
v -3.083010 -0.000008 -59.096161
v 6.916994 -0.000008 -59.096161
v 16.916996 -0.000008 -59.096161
v 26.916992 -0.000008 -59.096161
vn -0.0000 1.0000 -0.0000
vt -5.238760 -5.195703
vt -4.092823 -5.195703
vt -4.092823 -4.049764
vt -5.238760 -4.049764
vt -2.946885 -5.195703
vt -2.946885 -4.049764
vt -1.800949 -5.195703
vt -1.800949 -4.049764
vt -0.655010 -5.195703
vt -0.655010 -4.049764
vt 0.490927 -5.195703
vt 0.490927 -4.049764
vt 1.636864 -5.195703
vt 1.636864 -4.049764
vt 2.782801 -5.195703
vt 2.782801 -4.049764
vt 3.928739 -5.195703
vt 3.928739 -4.049764
vt 5.074677 -5.195703
vt 5.074677 -4.049764
vt 6.220614 -5.195703
vt 6.220614 -4.049764
vt -4.092823 -2.903827
vt -5.238760 -2.903827
vt 0.070969 0.114028
vt 0.175959 0.114028
vt 0.175959 0.219018
vt 0.070969 0.219018
vt 0.280948 0.114028
vt 0.280948 0.219018
vt 0.385938 0.114028
vt 0.385938 0.219018
vt 0.490927 0.114028
vt 0.490927 0.219018
vt 0.595917 0.114028
vt 0.595917 0.219018
vt 0.700906 0.114028
vt 0.700906 0.219018
vt 0.805896 0.114028
vt 0.805896 0.219018
vt 0.910885 0.114028
vt 0.910885 0.219018
vt 6.220614 -2.903827
vt 5.074677 -2.903827
vt -4.092823 -1.757889
vt -5.238760 -1.757889
vt 0.175959 0.324007
vt 0.070969 0.324007
vt -3.232987 -3.232987
vt -1.988658 -3.232987
vt -1.988658 -1.988658
vt -3.232987 -1.988658
vt -0.744329 -3.232987
vt -0.744329 -1.988658
vt 0.500000 -3.232987
vt 0.500000 -1.988658
vt 1.744329 -3.232987
vt 1.744329 -1.988658
vt 2.988658 -3.232987
vt 2.988658 -1.988658
vt 4.232987 -3.232987
vt 4.232987 -1.988658
vt 0.910885 0.324007
vt 0.805896 0.324007
vt 6.220614 -1.757889
vt 5.074677 -1.757889
vt -4.092823 -0.611953
vt -5.238760 -0.611953
vt 0.175959 0.428997
vt 0.070969 0.428997
vt -1.988658 -0.744329
vt -3.232987 -0.744329
vt -0.744329 -0.744329
vt 0.500000 -0.744329
vt 1.744329 -0.744329
vt 2.988658 -0.744329
vt 4.232987 -0.744329
vt 0.910885 0.428997
vt 0.805896 0.428997
vt 6.220614 -0.611953
vt 5.074677 -0.611953
vt -4.092823 0.533985
vt -5.238760 0.533985
vt 0.175959 0.533986
vt 0.070969 0.533986
vt -1.988658 0.500000
vt -3.232987 0.500000
vt -0.744329 0.500000
vt 0.500000 0.500000
vt 1.744329 0.500000
vt 2.988658 0.500000
vt 4.232987 0.500000
vt 0.910885 0.533986
vt 0.805896 0.533986
vt 6.220614 0.533985
vt 5.074677 0.533985
vt -4.092823 1.679924
vt -5.238760 1.679924
vt 0.175959 0.638976
vt 0.070969 0.638976
vt -1.988658 1.744329
vt -3.232987 1.744329
vt -0.744329 1.744329
vt 0.500000 1.744329
vt 1.744329 1.744329
vt 2.988658 1.744329
vt 4.232987 1.744329
vt 0.910885 0.638976
vt 0.805896 0.638976
vt 6.220614 1.679924
vt 5.074677 1.679924
vt -4.092823 2.825859
vt -5.238760 2.825859
vt 0.175959 0.743965
vt 0.070969 0.743965
vt -1.988658 2.988658
vt -3.232987 2.988658
vt -0.744329 2.988658
vt 0.500000 2.988658
vt 1.744329 2.988658
vt 2.988658 2.988658
vt 4.232987 2.988658
vt 0.910885 0.743965
vt 0.805896 0.743965
vt 6.220614 2.825859
vt 5.074677 2.825859
vt -4.092823 3.971799
vt -5.238760 3.971799
vt 0.175959 0.848955
vt 0.070969 0.848955
vt -1.988658 4.232986
vt -3.232987 4.232986
vt -0.744329 4.232986
vt 0.500000 4.232986
vt 1.744329 4.232986
vt 2.988658 4.232986
vt 4.232987 4.232986
vt 0.910885 0.848955
vt 0.805896 0.848955
vt 6.220614 3.971799
vt 5.074677 3.971799
vt -4.092823 5.117736
vt -5.238760 5.117736
vt 0.175959 0.953945
vt 0.070969 0.953945
vt 0.280948 0.848955
vt 0.280948 0.953945
vt 0.385938 0.848955
vt 0.385938 0.953945
vt 0.490927 0.848955
vt 0.490927 0.953945
vt 0.595917 0.848955
vt 0.595917 0.953945
vt 0.700906 0.848955
vt 0.700906 0.953945
vt 0.805896 0.953945
vt 0.910885 0.953945
vt 6.220614 5.117736
vt 5.074677 5.117736
vt -4.092823 6.263676
vt -5.238760 6.263676
vt -2.946885 5.117736
vt -2.946885 6.263676
vt -1.800949 5.117736
vt -1.800949 6.263676
vt -0.655010 5.117736
vt -0.655010 6.263676
vt 0.490927 5.117736
vt 0.490927 6.263676
vt 1.636864 5.117736
vt 1.636864 6.263676
vt 2.782801 5.117736
vt 2.782801 6.263676
vt 3.928739 5.117736
vt 3.928739 6.263676
vt 5.074677 6.263676
vt 6.220614 6.263676
s 1
usemtl lambert2SG.001
f 1/1/1 2/2/1 13/3/1 12/4/1
f 2/2/1 3/5/1 14/6/1 13/3/1
f 3/5/1 4/7/1 15/8/1 14/6/1
f 4/7/1 5/9/1 16/10/1 15/8/1
f 5/9/1 6/11/1 17/12/1 16/10/1
f 6/11/1 7/13/1 18/14/1 17/12/1
f 7/13/1 8/15/1 19/16/1 18/14/1
f 8/15/1 9/17/1 20/18/1 19/16/1
f 9/17/1 10/19/1 21/20/1 20/18/1
f 10/19/1 11/21/1 22/22/1 21/20/1
f 12/4/1 13/3/1 24/23/1 23/24/1
f 21/20/1 22/22/1 33/43/1 32/44/1
f 23/24/1 24/23/1 35/45/1 34/46/1
f 25/49/1 26/50/1 37/51/1 36/52/1
f 26/50/1 27/53/1 38/54/1 37/51/1
f 27/53/1 28/55/1 39/56/1 38/54/1
f 28/55/1 29/57/1 40/58/1 39/56/1
f 29/57/1 30/59/1 41/60/1 40/58/1
f 30/59/1 31/61/1 42/62/1 41/60/1
f 32/44/1 33/43/1 44/65/1 43/66/1
f 34/46/1 35/45/1 46/67/1 45/68/1
f 36/52/1 37/51/1 48/71/1 47/72/1
f 37/51/1 38/54/1 49/73/1 48/71/1
f 38/54/1 39/56/1 50/74/1 49/73/1
f 39/56/1 40/58/1 51/75/1 50/74/1
f 40/58/1 41/60/1 52/76/1 51/75/1
f 41/60/1 42/62/1 53/77/1 52/76/1
f 43/66/1 44/65/1 55/80/1 54/81/1
f 45/68/1 46/67/1 57/82/1 56/83/1
f 47/72/1 48/71/1 59/86/1 58/87/1
f 48/71/1 49/73/1 60/88/1 59/86/1
f 49/73/1 50/74/1 61/89/1 60/88/1
f 50/74/1 51/75/1 62/90/1 61/89/1
f 51/75/1 52/76/1 63/91/1 62/90/1
f 52/76/1 53/77/1 64/92/1 63/91/1
f 54/81/1 55/80/1 66/95/1 65/96/1
f 56/83/1 57/82/1 68/97/1 67/98/1
f 58/87/1 59/86/1 70/101/1 69/102/1
f 59/86/1 60/88/1 71/103/1 70/101/1
f 60/88/1 61/89/1 72/104/1 71/103/1
f 61/89/1 62/90/1 73/105/1 72/104/1
f 62/90/1 63/91/1 74/106/1 73/105/1
f 63/91/1 64/92/1 75/107/1 74/106/1
f 65/96/1 66/95/1 77/110/1 76/111/1
f 67/98/1 68/97/1 79/112/1 78/113/1
f 69/102/1 70/101/1 81/116/1 80/117/1
f 70/101/1 71/103/1 82/118/1 81/116/1
f 71/103/1 72/104/1 83/119/1 82/118/1
f 72/104/1 73/105/1 84/120/1 83/119/1
f 73/105/1 74/106/1 85/121/1 84/120/1
f 74/106/1 75/107/1 86/122/1 85/121/1
f 76/111/1 77/110/1 88/125/1 87/126/1
f 78/113/1 79/112/1 90/127/1 89/128/1
f 80/117/1 81/116/1 92/131/1 91/132/1
f 81/116/1 82/118/1 93/133/1 92/131/1
f 82/118/1 83/119/1 94/134/1 93/133/1
f 83/119/1 84/120/1 95/135/1 94/134/1
f 84/120/1 85/121/1 96/136/1 95/135/1
f 85/121/1 86/122/1 97/137/1 96/136/1
f 87/126/1 88/125/1 99/140/1 98/141/1
f 89/128/1 90/127/1 101/142/1 100/143/1
f 98/141/1 99/140/1 110/158/1 109/159/1
f 100/143/1 101/142/1 112/160/1 111/161/1
f 101/142/1 102/162/1 113/163/1 112/160/1
f 102/162/1 103/164/1 114/165/1 113/163/1
f 103/164/1 104/166/1 115/167/1 114/165/1
f 104/166/1 105/168/1 116/169/1 115/167/1
f 105/168/1 106/170/1 117/171/1 116/169/1
f 106/170/1 107/172/1 118/173/1 117/171/1
f 107/172/1 108/174/1 119/175/1 118/173/1
f 108/174/1 109/159/1 120/176/1 119/175/1
f 109/159/1 110/158/1 121/177/1 120/176/1
usemtl Material.008
f 13/25/1 14/26/1 25/27/1 24/28/1
f 14/26/1 15/29/1 26/30/1 25/27/1
f 15/29/1 16/31/1 27/32/1 26/30/1
f 16/31/1 17/33/1 28/34/1 27/32/1
f 17/33/1 18/35/1 29/36/1 28/34/1
f 18/35/1 19/37/1 30/38/1 29/36/1
f 19/37/1 20/39/1 31/40/1 30/38/1
f 20/39/1 21/41/1 32/42/1 31/40/1
f 24/28/1 25/27/1 36/47/1 35/48/1
f 31/40/1 32/42/1 43/63/1 42/64/1
f 35/48/1 36/47/1 47/69/1 46/70/1
f 42/64/1 43/63/1 54/78/1 53/79/1
f 46/70/1 47/69/1 58/84/1 57/85/1
f 53/79/1 54/78/1 65/93/1 64/94/1
f 57/85/1 58/84/1 69/99/1 68/100/1
f 64/94/1 65/93/1 76/108/1 75/109/1
f 68/100/1 69/99/1 80/114/1 79/115/1
f 75/109/1 76/108/1 87/123/1 86/124/1
f 79/115/1 80/114/1 91/129/1 90/130/1
f 86/124/1 87/123/1 98/138/1 97/139/1
f 90/130/1 91/129/1 102/144/1 101/145/1
f 91/129/1 92/146/1 103/147/1 102/144/1
f 92/146/1 93/148/1 104/149/1 103/147/1
f 93/148/1 94/150/1 105/151/1 104/149/1
f 94/150/1 95/152/1 106/153/1 105/151/1
f 95/152/1 96/154/1 107/155/1 106/153/1
f 96/154/1 97/139/1 108/156/1 107/155/1
f 97/139/1 98/138/1 109/157/1 108/156/1
